# xmcd CD database file
# Copyright (C) 1993-1996 Ti Kan
#
# Track frame offsets:
#	150
#	20612
#	37267
#	54975
#	71460
#	91290
#	117455
#	136537
#	154867
#	171985
#	189980
#	207690
#	226512
#	244685
#	264572
#	287755
#	306720
#	325887
#
# Disc length: 4579 seconds
#
# Revision: 1
# Processed by: cddbd v1.4b41PL1 Copyright (c) Steve Scherf et al.
# Submitted via: CDValet v3.01 - Copyright (c) 1997 Greg Leichner
#
DISCID=0511e112
DTITLE=Various Artist - DJ Hits - Soul Edition, Vol. 3
DYEAR=1900
DGENRE=
TTITLE0=Scream (Soul Edition), Michael Jackson and Janet Jackson
TTITLE1=This How We Do It, Montel Jordan
TTITLE2=Come Into My Life, Joyce Sims
TTITLE3=I Want You, Rossie Gaines feat. Prince
TTITLE4=To Many Fish, Frankie Knuckles feat. Adeva
TTITLE5=If You Love Me, Brownstone
TTITLE6=Stay With Me Tonight, Jeffrey Osborne
TTITLE7=Everyday, Incognito
TTITLE8=Keep Givin' Me Your Love, Ce Ce Peniston
TTITLE9=Love Come Down, Eve Gallagher
TTITLE10=As Long As You're Good To Me, Judy Cheeks
TTITLE11=Freedom, Michelle Gayle
TTITLE12=Affection, Jody Watley
TTITLE13=Crazy, Mark Morrison
TTITLE14=Keep Their Heads Ringin', Dr. Dre
TTITLE15=Freak Like Me, Adina Howard
TTITLE16=Big Poppa, The Notorious B.I.G.
TTITLE17=Give It 2 You, Da Brat
EXTD=
EXTT0=
EXTT1=
EXTT2=
EXTT3=
EXTT4=
EXTT5=
EXTT6=
EXTT7=
EXTT8=
EXTT9=
EXTT10=
EXTT11=
EXTT12=
EXTT13=
EXTT14=
EXTT15=
EXTT16=
EXTT17=
PLAYORDER=
